# xmcd
#
# Track frame offsets: 
#        150
#        16634
#        35123
#        50496
#        72224
#        92899
#        111613
#        139476
#        158749
#        178082
#
# Disc length: 2641 seconds
#
# Revision: 1
# Processed by: cddbd v1.5.2PL0 Copyright (c) Steve Scherf et al.
# Submitted via: ExactAudioCopy v0.95b4
#
DISCID=8e0a4f0a
DTITLE=Lily Holbrook - Everything Was Beautiful and Nothing Hurt
DYEAR=2005
DGENRE=Rock
TTITLE0=Welcome to the Slaughterhouse
TTITLE1=Running into Walls
TTITLE2=Make Them Wonder
TTITLE3=Better Left Unsaid
TTITLE4=Cowboys and Indians
TTITLE5=Bleed
TTITLE6=Mermaid
TTITLE7=Mama, I'm Coming Home
TTITLE8=When in Rome
TTITLE9=Three Inch Heels
EXTD=
EXTT0=
EXTT1=
EXTT2=
EXTT3=
EXTT4=
EXTT5=
EXTT6=
EXTT7=
EXTT8=
EXTT9=
PLAYORDER=
